<svg xmlns="http://www.w3.org/2000/svg" xmlns:xlink="http://www.w3.org/1999/xlink" width="1920" zoomAndPan="magnify" viewBox="0 0 1440 809.999993" height="1080" preserveAspectRatio="xMidYMid meet" version="1.0"><defs><clipPath id="3934cb3367"><path d="M 420.167969 93.6875 L 1068 93.6875 L 1068 716.3125 L 420.167969 716.3125 Z M 420.167969 93.6875 " clip-rule="nonzero"/></clipPath><clipPath id="a254815af9"><path d="M 458.417969 93.6875 L 1029.289062 93.6875 C 1050.414062 93.6875 1067.539062 110.8125 1067.539062 131.9375 L 1067.539062 678.0625 C 1067.539062 699.1875 1050.414062 716.3125 1029.289062 716.3125 L 458.417969 716.3125 C 437.292969 716.3125 420.167969 699.1875 420.167969 678.0625 L 420.167969 131.9375 C 420.167969 110.8125 437.292969 93.6875 458.417969 93.6875 Z M 458.417969 93.6875 " clip-rule="nonzero"/></clipPath><clipPath id="bc3a3a5975"><path d="M 636.660156 306.082031 L 1009.085938 306.082031 L 1009.085938 678.503906 L 636.660156 678.503906 Z M 636.660156 306.082031 " clip-rule="nonzero"/></clipPath><clipPath id="88e098345a"><path d="M 542 126 L 863 126 L 863 512 L 542 512 Z M 542 126 " clip-rule="nonzero"/></clipPath><clipPath id="f963511f9e"><path d="M 372.460938 374.378906 L 697.78125 93.617188 L 900.675781 328.714844 L 575.355469 609.476562 Z M 372.460938 374.378906 " clip-rule="nonzero"/></clipPath><clipPath id="6554bc3183"><path d="M 372.460938 374.378906 L 697.78125 93.617188 L 900.675781 328.714844 L 575.355469 609.476562 Z M 372.460938 374.378906 " clip-rule="nonzero"/></clipPath><clipPath id="e54a5be854"><path d="M 430.039062 324.90625 L 698.339844 93.355469 L 901.605469 328.878906 L 633.304688 560.429688 Z M 430.039062 324.90625 " clip-rule="nonzero"/></clipPath><clipPath id="4185bcc9cf"><path d="M 430.039062 324.90625 L 697.863281 93.769531 L 900.796875 328.914062 L 632.976562 560.050781 Z M 430.039062 324.90625 " clip-rule="nonzero"/></clipPath><clipPath id="2b56290a38"><path d="M 495 385 L 731 385 L 731 531 L 495 531 Z M 495 385 " clip-rule="nonzero"/></clipPath><clipPath id="e17be7d862"><path d="M 372.460938 374.378906 L 697.78125 93.617188 L 900.675781 328.714844 L 575.355469 609.476562 Z M 372.460938 374.378906 " clip-rule="nonzero"/></clipPath><clipPath id="c7b25b8630"><path d="M 372.460938 374.378906 L 697.78125 93.617188 L 900.675781 328.714844 L 575.355469 609.476562 Z M 372.460938 374.378906 " clip-rule="nonzero"/></clipPath></defs><g clip-path="url(#3934cb3367)"><g clip-path="url(#a254815af9)"><path fill="#eee4b1" d="M 420.167969 93.6875 L 1067.121094 93.6875 L 1067.121094 716.3125 L 420.167969 716.3125 Z M 420.167969 93.6875 " fill-opacity="1" fill-rule="nonzero"/></g></g><g clip-path="url(#bc3a3a5975)"><path fill="#000000" d="M 941.613281 478.917969 L 981.996094 519.300781 L 995.539062 505.753906 L 1009.085938 492.207031 L 995.539062 478.664062 L 915.980469 399.101562 L 902.433594 385.640625 L 888.886719 399.1875 L 875.34375 412.734375 L 795.78125 492.292969 L 822.789062 519.300781 L 902.347656 439.738281 L 928.070312 465.460938 Z M 836.335938 319.628906 L 849.878906 333.171875 L 822.875 360.179688 L 756.859375 426.195312 L 690.757812 492.292969 L 756.859375 558.394531 L 822.960938 624.492188 L 902.605469 544.847656 L 929.613281 571.855469 L 916.066406 585.398438 L 822.960938 678.503906 L 809.414062 664.960938 L 729.855469 585.398438 L 650.292969 505.839844 L 636.660156 492.292969 L 650.207031 478.746094 L 729.769531 399.1875 L 822.875 306.082031 Z M 836.335938 319.628906 " fill-opacity="1" fill-rule="evenodd"/></g><g clip-path="url(#88e098345a)"><g clip-path="url(#f963511f9e)"><g clip-path="url(#6554bc3183)"><g clip-path="url(#e54a5be854)"><g clip-path="url(#4185bcc9cf)"><path fill="#e19527" d="M 787.257812 256.863281 C 787.257812 256.863281 785.253906 172.175781 730.890625 138.253906 C 676.527344 104.335938 609.503906 151.027344 587.523438 215.992188 C 565.539062 280.957031 592.359375 394.402344 542.320312 454.3125 C 542.320312 454.3125 570.09375 442.890625 588.082031 381.367188 C 606.070312 319.851562 601.386719 220.75 649.671875 184.652344 C 697.964844 148.554688 763.25 196.742188 754.296875 257.429688 C 754.296875 257.429688 732.28125 210.925781 697.222656 199.367188 C 697.222656 199.367188 742.765625 231.148438 731.242188 275.933594 C 731.242188 275.933594 695.28125 242.339844 663.9375 243.167969 C 663.9375 243.167969 706.816406 262.171875 716.753906 289.832031 C 716.753906 289.832031 641.226562 360.585938 634.917969 456.632812 C 634.917969 456.632812 678.335938 334.136719 781.261719 277.367188 L 823.46875 303.664062 C 823.46875 303.664062 705.761719 388.523438 689.234375 511.496094 C 689.234375 511.496094 752.953125 367.308594 862.378906 303.53125 L 787.257812 256.863281 " fill-opacity="1" fill-rule="nonzero"/></g></g></g></g></g><g clip-path="url(#2b56290a38)"><g clip-path="url(#e17be7d862)"><g clip-path="url(#c7b25b8630)"><path fill="#e19527" d="M 549.417969 388.25 C 549.417969 388.25 498.085938 422.789062 495.78125 466.601562 C 493.269531 514.296875 561.699219 567.207031 619.257812 496.625 L 666.617188 524.050781 C 666.617188 524.050781 684.179688 437.8125 730.695312 385.121094 C 730.695312 385.121094 685.929688 413.996094 653.8125 494.679688 L 612.078125 472.160156 C 612.078125 472.160156 581.570312 520.789062 537.21875 503.3125 C 492.871094 485.839844 507.753906 434.367188 549.417969 388.25 " fill-opacity="1" fill-rule="nonzero"/></g></g></g></svg>